# xmcd
#
# Track frame offsets:
#	150
#	20258
#	39905
#	52466
#	63536
#	74159
#	85895
#	98963
#	108946
#	117980
#	130833
#	141623
#	154913
#	169725
#	182819
#	198528
#	220997
#	234871
#	247777
#	260414
#	271566
#	284599
#
# Disc length: 4044 seconds
#
# Revision: 0
# Processed by: cddbd v1.5.1PL0 Copyright (c) Steve Scherf et al.
# Submitted via: dBpowerAMP V4.0
#
DISCID=4d0fca16
DTITLE=Blind Boys Of Alabama - Blind Boys of Alabama
DYEAR=1900
DGENRE=Gospel
TTITLE0=Amazing Grace
TTITLE1=Motherless child
TTITLE2=Oh Lord, stand by me
TTITLE3=Hallelujah
TTITLE4=I cried
TTITLE5=Without the help of Jesus
TTITLE6=Every time I feel the spirit
TTITLE7=I'll fly away
TTITLE8=Marching up to Zion
TTITLE9=Precious Lord
TTITLE10=Old time religion
TTITLE11=Nobody's fault but mine
TTITLE12=When I need him most
TTITLE13=Youil never walk alone
TTITLE14=Leave your burden there
TTITLE15=Jesus gonna be here
TTITLE16=I've been born again
TTITLE17=Is your all on the altar
TTITLE18=I'm on the battlefield
TTITLE19=Here am I
TTITLE20=Something's got a hold on me
TTITLE21=Just a closer walk vith thee
EXTD=
EXTT0=
EXTT1=
EXTT2=
EXTT3=
EXTT4=
EXTT5=
EXTT6=
EXTT7=
EXTT8=
EXTT9=
EXTT10=
EXTT11=
EXTT12=
EXTT13=
EXTT14=
EXTT15=
EXTT16=
EXTT17=
EXTT18=
EXTT19=
EXTT20=
EXTT21=
PLAYORDER=
